<svg xmlns="http://www.w3.org/2000/svg" viewBox="0 0 100 100" width="100" height="100">
  <circle cx="35" cy="50" r="28" fill="none" stroke="#72641c" stroke-width="3.5"/>
  <circle cx="65" cy="50" r="28" fill="none" stroke="#72641c" stroke-width="3.5"/>
  <defs>
    <clipPath id="overlap">
      <path d="M50,25.5 A28,28 0 0,1 50,74.5 A28,28 0 0,1 50,25.5 Z"/>
    </clipPath>
  </defs>
  <g clip-path="url(#overlap)">
    <line x1="40" y1="22" x2="40" y2="78" stroke="#72641c" stroke-width="2.2"/>
    <line x1="45" y1="22" x2="45" y2="78" stroke="#72641c" stroke-width="2.2"/>
    <line x1="50" y1="22" x2="50" y2="78" stroke="#72641c" stroke-width="2.2"/>
    <line x1="55" y1="22" x2="55" y2="78" stroke="#72641c" stroke-width="2.2"/>
    <line x1="60" y1="22" x2="60" y2="78" stroke="#72641c" stroke-width="2.2"/>
    <line x1="30" y1="30" x2="70" y2="70" stroke="#72641c" stroke-width="1.8"/>
    <line x1="30" y1="37" x2="70" y2="77" stroke="#72641c" stroke-width="1.8"/>
    <line x1="30" y1="23" x2="70" y2="63" stroke="#72641c" stroke-width="1.8"/>
    <line x1="37" y1="22" x2="70" y2="55" stroke="#72641c" stroke-width="1.8"/>
    <line x1="44" y1="22" x2="70" y2="48" stroke="#72641c" stroke-width="1.8"/>
    <line x1="30" y1="44" x2="63" y2="77" stroke="#72641c" stroke-width="1.8"/>
    <line x1="30" y1="51" x2="56" y2="77" stroke="#72641c" stroke-width="1.8"/>
  </g>
</svg>
